<svg width="24" height="22" viewBox="0 0 24 22" fill="none" xmlns="http://www.w3.org/2000/svg">
<g filter="url(#filter0_d_4103_379)">
<path d="M21.5306 18.4693L16.8365 13.7762C18.1971 12.1428 18.8755 10.0478 18.7307 7.92691C18.5859 5.80604 17.629 3.82265 16.0591 2.38932C14.4892 0.955989 12.4271 0.183083 10.3019 0.231383C8.17663 0.279683 6.15181 1.14547 4.64864 2.64864C3.14547 4.15181 2.27968 6.17663 2.23138 8.30188C2.18308 10.4271 2.95599 12.4892 4.38932 14.0591C5.82265 15.629 7.80604 16.5859 9.92691 16.7307C12.0478 16.8755 14.1428 16.1971 15.7762 14.8365L20.4693 19.5306C20.539 19.6003 20.6218 19.6556 20.7128 19.6933C20.8038 19.731 20.9014 19.7504 21 19.7504C21.0985 19.7504 21.1961 19.731 21.2871 19.6933C21.3782 19.6556 21.4609 19.6003 21.5306 19.5306C21.6003 19.4609 21.6556 19.3782 21.6933 19.2871C21.731 19.1961 21.7504 19.0985 21.7504 19C21.7504 18.9014 21.731 18.8038 21.6933 18.7128C21.6556 18.6218 21.6003 18.539 21.5306 18.4693ZM3.74997 8.49997C3.74997 7.16495 4.14585 5.8599 4.88755 4.74987C5.62925 3.63984 6.68346 2.77467 7.91686 2.26378C9.15026 1.75289 10.5075 1.61922 11.8168 1.87967C13.1262 2.14012 14.3289 2.78299 15.2729 3.727C16.2169 4.671 16.8598 5.87374 17.1203 7.18311C17.3807 8.49248 17.2471 9.84968 16.7362 11.0831C16.2253 12.3165 15.3601 13.3707 14.2501 14.1124C13.14 14.8541 11.835 15.25 10.5 15.25C8.71037 15.248 6.99463 14.5362 5.72919 13.2708C4.46375 12.0053 3.75196 10.2896 3.74997 8.49997Z" fill="#EF5F4C"/>
</g>
<defs>
<filter id="filter0_d_4103_379" x="-1.77075" y="0.229248" width="27.5212" height="27.5211" filterUnits="userSpaceOnUse" color-interpolation-filters="sRGB">
<feFlood flood-opacity="0" result="BackgroundImageFix"/>
<feColorMatrix in="SourceAlpha" type="matrix" values="0 0 0 0 0 0 0 0 0 0 0 0 0 0 0 0 0 0 127 0" result="hardAlpha"/>
<feOffset dy="4"/>
<feGaussianBlur stdDeviation="2"/>
<feComposite in2="hardAlpha" operator="out"/>
<feColorMatrix type="matrix" values="0 0 0 0 0 0 0 0 0 0 0 0 0 0 0 0 0 0 0.25 0"/>
<feBlend mode="normal" in2="BackgroundImageFix" result="effect1_dropShadow_4103_379"/>
<feBlend mode="normal" in="SourceGraphic" in2="effect1_dropShadow_4103_379" result="shape"/>
</filter>
</defs>
</svg>
