<svg width="30" height="31" viewBox="0 0 30 31" fill="none" xmlns="http://www.w3.org/2000/svg">
<g filter="url(#filter0_d_2209_229)">
<path d="M5.5 12C5.5 7.52166 5.5 5.28249 6.89124 3.89124C8.28249 2.5 10.5217 2.5 15 2.5C19.4783 2.5 21.7175 2.5 23.1088 3.89124C24.5 5.28249 24.5 7.52166 24.5 12C24.5 16.4783 24.5 18.7175 23.1088 20.1088C21.7175 21.5 19.4783 21.5 15 21.5C10.5217 21.5 8.28249 21.5 6.89124 20.1088C5.5 18.7175 5.5 16.4783 5.5 12Z" fill="white"/>
<path d="M5.5 12C5.5 7.52166 5.5 5.28249 6.89124 3.89124C8.28249 2.5 10.5217 2.5 15 2.5C19.4783 2.5 21.7175 2.5 23.1088 3.89124C24.5 5.28249 24.5 7.52166 24.5 12C24.5 16.4783 24.5 18.7175 23.1088 20.1088C21.7175 21.5 19.4783 21.5 15 21.5C10.5217 21.5 8.28249 21.5 6.89124 20.1088C5.5 18.7175 5.5 16.4783 5.5 12Z" stroke="#D6D3D1" stroke-width="1.5"/>
</g>
<defs>
<filter id="filter0_d_2209_229" x="0.75" y="1.75" width="28.5" height="28.5" filterUnits="userSpaceOnUse" color-interpolation-filters="sRGB">
<feFlood flood-opacity="0" result="BackgroundImageFix"/>
<feColorMatrix in="SourceAlpha" type="matrix" values="0 0 0 0 0 0 0 0 0 0 0 0 0 0 0 0 0 0 127 0" result="hardAlpha"/>
<feOffset dy="4"/>
<feGaussianBlur stdDeviation="2"/>
<feComposite in2="hardAlpha" operator="out"/>
<feColorMatrix type="matrix" values="0 0 0 0 0 0 0 0 0 0 0 0 0 0 0 0 0 0 0.25 0"/>
<feBlend mode="normal" in2="BackgroundImageFix" result="effect1_dropShadow_2209_229"/>
<feBlend mode="normal" in="SourceGraphic" in2="effect1_dropShadow_2209_229" result="shape"/>
</filter>
</defs>
</svg>
